<svg width="42" height="42" viewBox="0 0 42 42" fill="none" xmlns="http://www.w3.org/2000/svg">
<g clip-path="url(#clip0_547_5)">
<rect width="42" height="42" rx="10" fill="#3D3B8E"/>
<path d="M21.3942 1.69246L21 1.18709L20.6058 1.69246L13.1705 11.2237L1.80821 15.3497L1.20575 15.5685L1.56456 16.0996L8.33168 26.1162L8.74459 38.1974L8.76648 38.838L9.38247 38.6609L21 35.3203L32.6175 38.6609L33.2335 38.838L33.2554 38.1974L33.6683 26.1162L40.4354 16.0996L40.7943 15.5685L40.1918 15.3497L28.8295 11.2237L21.3942 1.69246Z" fill="#D7FF81"/>
<path d="M21.3942 1.69246L21 1.18709L20.6058 1.69246L13.1705 11.2237L1.80821 15.3497L1.20575 15.5685L1.56456 16.0996L8.33168 26.1162L8.74459 38.1974L8.76648 38.838L9.38247 38.6609L21 35.3203L32.6175 38.6609L33.2335 38.838L33.2554 38.1974L33.6683 26.1162L40.4354 16.0996L40.7943 15.5685L40.1918 15.3497L28.8295 11.2237L21.3942 1.69246Z" fill="url(#paint0_radial_547_5)" fill-opacity="0.2"/>
<path d="M21.3942 1.69246L21 1.18709L20.6058 1.69246L13.1705 11.2237L1.80821 15.3497L1.20575 15.5685L1.56456 16.0996L8.33168 26.1162L8.74459 38.1974L8.76648 38.838L9.38247 38.6609L21 35.3203L32.6175 38.6609L33.2335 38.838L33.2554 38.1974L33.6683 26.1162L40.4354 16.0996L40.7943 15.5685L40.1918 15.3497L28.8295 11.2237L21.3942 1.69246Z" stroke="#3D3B8E"/>
</g>
<defs>
<radialGradient id="paint0_radial_547_5" cx="0" cy="0" r="1" gradientUnits="userSpaceOnUse" gradientTransform="translate(21 22) rotate(90) scale(20)">
<stop stop-color="#D2F769" stop-opacity="0.53"/>
<stop offset="1" stop-color="#A9D32B"/>
</radialGradient>
<clipPath id="clip0_547_5">
<rect width="42" height="42" rx="10" fill="white"/>
</clipPath>
</defs>
</svg>
