<svg width="39" height="31" viewBox="0 0 39 31" fill="none" xmlns="http://www.w3.org/2000/svg">
<path d="M16.5 30.5L27.9823 29.2796L21.1842 19.9458L16.5 30.5ZM0.5 2C7.17876 2 13.897 2.00041 19.7446 2.37614C25.6291 2.75426 30.476 3.50631 33.4912 4.92989C34.9878 5.63654 35.9088 6.45158 36.3453 7.34741C36.7652 8.20924 36.821 9.32158 36.2088 10.8369C35.5876 12.3746 34.3028 14.2548 32.1549 16.5287C30.0149 18.7943 27.0609 21.4063 23.1598 24.4128L24.3807 25.9969C28.3313 22.9522 31.3726 20.2695 33.6088 17.9021C35.8372 15.543 37.3094 13.4521 38.0632 11.586C38.8262 9.69748 38.875 7.97331 38.1432 6.47139C37.428 5.00346 36.0525 3.92749 34.345 3.12133C30.9519 1.51931 25.7601 0.758551 19.8728 0.38026C13.9485 -0.00040449 7.16183 2.85616e-07 0.5 0L0.5 2Z" fill="white"/>
</svg>
